<?xml version="1.0" standalone="no"?>
<!DOCTYPE svg PUBLIC "-//W3C//DTD SVG 20010904//EN"
 "http://www.w3.org/TR/2001/REC-SVG-20010904/DTD/svg10.dtd">
<svg version="1.0" xmlns="http://www.w3.org/2000/svg"
 width="1024.000000pt" height="1024.000000pt" viewBox="0 0 1024.000000 1024.000000"
 preserveAspectRatio="xMidYMid meet">

<g transform="translate(0.000000,1024.000000) scale(0.100000,-0.100000)"
fill="#000000" stroke="none">
<path d="M2500 8880 c-317 -20 -592 -141 -800 -351 -181 -183 -286 -412 -310
-681 -8 -88 -10 -891 -8 -2833 l4 -2710 21 -85 c112 -448 416 -749 863 -852
l95 -22 2745 -4 c1979 -2 2773 0 2844 8 254 29 467 127 648 299 138 131 222
260 280 431 62 183 58 -8 58 3025 0 3048 4 2847 -61 3031 -59 168 -137 292
-263 418 -156 156 -347 255 -595 309 -96 20 -107 20 -2751 22 -1460 2 -2707
-1 -2770 -5z m3090 -540 c338 -51 584 -125 855 -257 141 -69 245 -129 245
-142 0 -4 -53 -27 -117 -51 -607 -223 -856 -359 -1111 -605 -96 -91 -163 -173
-238 -287 l-51 -79 -28 48 c-78 136 -251 325 -398 437 -100 75 -261 172 -401
240 -112 55 -447 195 -610 256 -102 38 -104 30 29 109 279 165 677 294 1055
340 47 6 101 13 120 15 92 11 520 -4 650 -24z m-3030 -167 c14 -9 57 -47 96
-84 76 -71 176 -142 284 -202 100 -55 583 -271 1000 -447 377 -159 509 -230
660 -351 182 -146 316 -334 389 -543 76 -216 81 -459 15 -658 -8 -26 -40 -84
-71 -129 l-55 -83 22 -76 c12 -41 37 -115 56 -165 l34 -90 -27 -38 c-44 -63
-183 -200 -266 -261 -219 -162 -443 -236 -711 -236 -208 0 -350 35 -551 135
-257 128 -446 324 -571 590 -95 205 -128 353 -128 590 0 354 84 603 296 873
27 35 48 65 46 66 -2 2 -37 22 -78 46 -311 178 -513 458 -585 809 -23 112 -17
192 16 227 42 46 88 55 129 27z m5322 -10 c42 -38 51 -72 45 -168 -21 -332
-270 -706 -594 -891 l-73 -41 54 -68 c330 -414 389 -1014 147 -1493 -84 -167
-244 -353 -396 -462 -363 -261 -851 -308 -1226 -120 -158 80 -370 258 -453
381 l-34 51 29 71 c17 40 41 109 54 154 13 46 27 87 30 93 3 6 -9 29 -28 53
-86 106 -130 228 -142 398 -14 181 22 363 105 536 67 140 138 240 250 353 168
168 289 237 815 463 544 234 851 372 940 423 99 57 199 131 290 216 39 36 77
68 85 71 25 10 81 -1 102 -20z m12 -1615 c164 -307 298 -719 351 -1082 36
-247 36 -677 0 -917 -81 -547 -314 -1077 -666 -1520 -387 -486 -937 -856
-1545 -1038 -122 -37 -382 -96 -390 -89 -1 2 71 98 161 213 l163 210 -21 24
c-12 12 -118 106 -234 208 -117 102 -213 188 -213 192 0 4 44 36 98 71 59 38
133 100 189 156 l92 93 134 44 c201 67 412 178 587 308 115 85 326 293 414
409 264 346 397 653 470 1086 22 128 23 131 71 190 194 237 323 593 341 936 9
176 -15 401 -61 581 -13 49 3 29 59 -75z m-5405 6 c-29 -141 -39 -250 -39
-414 0 -186 13 -298 50 -447 54 -214 140 -395 270 -568 60 -81 68 -96 75 -150
24 -207 110 -496 205 -693 278 -576 736 -984 1323 -1180 94 -31 116 -43 146
-77 72 -80 155 -151 234 -203 116 -75 112 -71 85 -100 -13 -13 -118 -107 -235
-209 l-212 -185 27 -37 c47 -62 124 -162 214 -275 48 -61 86 -111 85 -112 -1
-1 -45 6 -97 16 -482 92 -934 295 -1330 598 -139 106 -427 387 -534 522 -304
382 -540 891 -630 1358 -47 245 -51 295 -51 602 0 259 3 313 23 440 57 353
129 620 239 880 51 119 153 320 163 320 3 0 -2 -39 -11 -86z m2731 -1541 c57
-72 213 -211 307 -274 437 -295 987 -328 1477 -87 43 21 81 36 84 34 7 -7 -36
-131 -83 -238 -168 -385 -531 -759 -890 -919 l-80 -36 0 131 c-1 143 -14 210
-68 346 -92 231 -293 409 -559 492 -102 32 -323 32 -442 0 -295 -81 -523 -303
-612 -597 -24 -79 -27 -108 -28 -232 -1 -79 -2 -143 -2 -143 -10 0 -141 66
-214 108 -369 212 -668 565 -830 979 -22 56 -40 105 -40 110 0 5 42 -12 93
-37 507 -249 1089 -198 1537 133 65 48 290 265 290 279 0 18 18 4 60 -49z m40
-903 c97 -15 203 -71 275 -144 267 -272 145 -740 -222 -851 -57 -18 -181 -19
-255 -4 -132 28 -265 134 -327 260 -77 157 -72 348 12 498 63 112 186 202 323
235 73 18 111 19 194 6z m55 -1708 c72 -65 130 -125 130 -135 0 -16 -250 -257
-266 -257 -5 0 -71 59 -149 131 l-140 130 53 48 c168 153 223 200 232 200 6 1
69 -52 140 -117z"/>
<path d="M3941 6744 c-187 -40 -347 -194 -395 -379 -77 -293 107 -589 404
-651 214 -44 444 61 558 255 35 60 72 191 72 255 -1 142 -57 273 -160 376 -78
78 -161 124 -259 145 -87 18 -135 18 -220 -1z m175 -380 c88 -42 100 -175 19
-228 -34 -22 -108 -23 -140 -2 -36 24 -65 75 -65 115 0 44 32 95 73 115 41 20
70 20 113 0z"/>
<path d="M6141 6734 c-217 -58 -374 -268 -375 -499 0 -148 44 -262 146 -371
97 -103 219 -154 368 -154 50 0 109 7 141 16 192 57 334 210 375 407 55 260
-115 535 -371 602 -73 19 -212 18 -284 -1z m195 -373 c46 -21 74 -68 74 -125
0 -45 -47 -102 -96 -115 -79 -22 -164 42 -164 123 0 55 34 107 80 123 47 16
59 16 106 -6z"/>
</g>
</svg>
